<svg width="90" height="133" viewBox="0 0 90 133" fill="none" xmlns="http://www.w3.org/2000/svg">
<g filter="url(#filter0_i_49_87)">
<mask id="path-1-inside-1_49_87" fill="white">
<path fill-rule="evenodd" clip-rule="evenodd" d="M40.0514 0.263997C29.105 1.64325 19.5631 6.41638 12.2676 14.1623C0.863282 26.2709 -2.90205 43.2581 2.29087 59.1742C3.47221 62.7948 6.26645 68.2862 8.44918 71.2768C9.38071 72.5528 11.4412 74.9468 13.0277 76.5966C16.0422 79.731 16.6616 80.944 16.6722 83.7339C16.6812 86.0752 18.4676 89.2918 20.5798 90.769C21.2743 91.2552 21.2836 91.3531 20.7722 92.8017C19.9134 95.2321 20.2127 97.4976 21.662 99.5428C22.2458 100.366 22.2365 100.453 21.4496 101.612C19.9037 103.887 19.9889 107.683 21.6346 109.862C22.2614 110.692 22.2568 110.746 21.4532 111.929C19.7277 114.468 20.0085 118.206 22.1157 120.76C23.2867 122.178 25.5407 123.4 27.0107 123.413C27.7555 123.419 28.0092 123.707 28.5095 125.112C29.7846 128.689 32.7574 131.441 36.5327 132.537C38.0205 132.969 39.9531 133.059 45.8053 132.968C52.5077 132.864 53.3552 132.781 54.879 132.078C57.4505 130.891 59.9315 128.365 61.0558 125.786C61.9916 123.641 62.0818 123.553 63.7595 123.155C68.5914 122.009 70.8693 116.805 68.5462 112.222L67.6795 110.512L68.446 109.477C69.6491 107.851 69.7304 104.153 68.6085 102.065L67.7483 100.463L68.5804 98.8943C69.487 97.1851 69.6912 94.4273 69.0479 92.5839C68.709 91.6132 68.8088 91.4093 70.4531 89.7054C72.3461 87.7438 73.3325 85.3655 73.3325 82.7618C73.3325 80.7945 74.1111 79.5192 77.4688 75.9872C86.4513 66.5385 91.0783 53.4069 89.7865 41.0288C88.2292 26.1068 80.5114 13.8355 67.935 6.28611C60.1243 1.59734 48.829 -0.842257 40.0514 0.263997ZM38.2308 5.44111C25.4944 7.82269 14.9621 15.5725 9.19326 26.8077C2.52393 39.7969 3.74483 56.195 12.2726 68.1637C13.1453 69.3889 15.2144 71.8132 16.8711 73.5519C20.2373 77.0849 21.2016 78.871 21.5334 82.188C21.992 86.7689 23.0807 87.557 29.2326 87.7624L33.4199 87.9022V75.7982V63.6942L30.2728 63.5696C27.5107 63.4607 26.9123 63.3137 25.3821 62.3683C22.1082 60.3452 20.6257 56.4552 21.6549 52.5865C22.1998 50.5384 25.1102 47.6065 27.2249 46.9758C30.5618 45.9806 34.03 47.0153 36.3224 49.6906C37.868 51.4941 38.4089 53.2022 38.4089 56.279V58.6403H45.0017H51.5944V55.781C51.5944 53.43 51.754 52.6068 52.4931 51.1503C56.0589 44.1219 66.6147 45.6254 68.3591 53.4101C69.1641 57.0033 67.1428 61.1457 63.7916 62.7702C62.9883 63.1592 61.2664 63.4903 59.4343 63.6077L56.4053 63.8013V75.7253V87.6492H60.6984C64.2 87.6492 65.1679 87.5335 65.9497 87.0213C67.465 86.0286 68.1139 84.7127 68.3979 82.056C68.7636 78.6397 69.7635 76.8173 73.3261 73.0774C75.0159 71.3034 77.09 68.8325 77.9356 67.5864C89.0955 51.1403 86.8297 29.7217 72.4815 16.021C67.1785 10.9571 61.7275 7.94762 54.4716 6.07681C50.0592 4.93924 42.4971 4.64345 38.2308 5.44111ZM28.1136 52.0184C26.0809 53.1435 25.6882 55.9558 27.3343 57.5998C28.2893 58.5538 28.5858 58.6403 30.8979 58.6403H33.4199V56.5214C33.4199 53.9757 32.9028 52.7086 31.5864 52.0287C30.3758 51.4037 29.2301 51.4001 28.1136 52.0184ZM57.8909 52.2494C56.8489 53.0684 56.2321 54.8787 56.2292 57.1275L56.2271 58.6403H58.7159C60.9585 58.6403 61.3195 58.5381 62.3604 57.6087C63.3169 56.7552 63.5165 56.3195 63.5165 55.0809C63.5165 52.1949 60.13 50.4907 57.8909 52.2494ZM38.4934 75.6281L38.5871 87.6492H45.0017H51.4162V75.7253V63.8013L44.9079 63.7042L38.3993 63.6074L38.4934 75.6281ZM25.9362 93.5221C25.5403 93.9176 25.2235 94.7085 25.2235 95.3018C25.2235 95.8952 25.5403 96.6861 25.9362 97.0815C26.6304 97.7749 27.124 97.7934 44.9464 97.7934C61.921 97.7934 63.2845 97.7482 63.8058 97.1705C64.8001 96.0685 64.8935 94.8302 64.0614 93.7738L63.3027 92.8103H44.9756C27.124 92.8103 26.6304 92.8288 25.9362 93.5221ZM27.0378 103.159C25.1847 103.911 24.7292 105.612 25.9623 107.178L26.7006 108.116H44.77C65.087 108.116 64.4234 108.199 64.4234 105.659C64.4234 104.741 64.1843 104.095 63.6736 103.633C62.9598 102.987 62.0771 102.951 45.41 102.883C34.6493 102.839 27.5652 102.946 27.0378 103.159ZM26.8272 113.51C25.0895 114.459 24.761 115.975 25.9623 117.5L26.7006 118.438H44.8495C62.5229 118.438 63.0165 118.419 63.7107 117.726C64.7719 116.666 64.6611 114.761 63.4844 113.837C62.5632 113.113 62.2186 113.099 45.0426 113.109C33.0639 113.117 27.315 113.243 26.8272 113.51ZM33.5549 124.4C34.2566 125.747 35.5 126.844 37.0662 127.497C38.0946 127.926 39.8287 128.048 44.9204 128.048C51.1671 128.048 51.532 128.009 53.2172 127.164C54.7225 126.409 56.5834 124.476 56.5834 123.666C56.5834 123.531 51.2872 123.421 44.8142 123.421H33.0453L33.5549 124.4Z"/>
</mask>
<path fill-rule="evenodd" clip-rule="evenodd" d="M40.0514 0.263997C29.105 1.64325 19.5631 6.41638 12.2676 14.1623C0.863282 26.2709 -2.90205 43.2581 2.29087 59.1742C3.47221 62.7948 6.26645 68.2862 8.44918 71.2768C9.38071 72.5528 11.4412 74.9468 13.0277 76.5966C16.0422 79.731 16.6616 80.944 16.6722 83.7339C16.6812 86.0752 18.4676 89.2918 20.5798 90.769C21.2743 91.2552 21.2836 91.3531 20.7722 92.8017C19.9134 95.2321 20.2127 97.4976 21.662 99.5428C22.2458 100.366 22.2365 100.453 21.4496 101.612C19.9037 103.887 19.9889 107.683 21.6346 109.862C22.2614 110.692 22.2568 110.746 21.4532 111.929C19.7277 114.468 20.0085 118.206 22.1157 120.76C23.2867 122.178 25.5407 123.4 27.0107 123.413C27.7555 123.419 28.0092 123.707 28.5095 125.112C29.7846 128.689 32.7574 131.441 36.5327 132.537C38.0205 132.969 39.9531 133.059 45.8053 132.968C52.5077 132.864 53.3552 132.781 54.879 132.078C57.4505 130.891 59.9315 128.365 61.0558 125.786C61.9916 123.641 62.0818 123.553 63.7595 123.155C68.5914 122.009 70.8693 116.805 68.5462 112.222L67.6795 110.512L68.446 109.477C69.6491 107.851 69.7304 104.153 68.6085 102.065L67.7483 100.463L68.5804 98.8943C69.487 97.1851 69.6912 94.4273 69.0479 92.5839C68.709 91.6132 68.8088 91.4093 70.4531 89.7054C72.3461 87.7438 73.3325 85.3655 73.3325 82.7618C73.3325 80.7945 74.1111 79.5192 77.4688 75.9872C86.4513 66.5385 91.0783 53.4069 89.7865 41.0288C88.2292 26.1068 80.5114 13.8355 67.935 6.28611C60.1243 1.59734 48.829 -0.842257 40.0514 0.263997ZM38.2308 5.44111C25.4944 7.82269 14.9621 15.5725 9.19326 26.8077C2.52393 39.7969 3.74483 56.195 12.2726 68.1637C13.1453 69.3889 15.2144 71.8132 16.8711 73.5519C20.2373 77.0849 21.2016 78.871 21.5334 82.188C21.992 86.7689 23.0807 87.557 29.2326 87.7624L33.4199 87.9022V75.7982V63.6942L30.2728 63.5696C27.5107 63.4607 26.9123 63.3137 25.3821 62.3683C22.1082 60.3452 20.6257 56.4552 21.6549 52.5865C22.1998 50.5384 25.1102 47.6065 27.2249 46.9758C30.5618 45.9806 34.03 47.0153 36.3224 49.6906C37.868 51.4941 38.4089 53.2022 38.4089 56.279V58.6403H45.0017H51.5944V55.781C51.5944 53.43 51.754 52.6068 52.4931 51.1503C56.0589 44.1219 66.6147 45.6254 68.3591 53.4101C69.1641 57.0033 67.1428 61.1457 63.7916 62.7702C62.9883 63.1592 61.2664 63.4903 59.4343 63.6077L56.4053 63.8013V75.7253V87.6492H60.6984C64.2 87.6492 65.1679 87.5335 65.9497 87.0213C67.465 86.0286 68.1139 84.7127 68.3979 82.056C68.7636 78.6397 69.7635 76.8173 73.3261 73.0774C75.0159 71.3034 77.09 68.8325 77.9356 67.5864C89.0955 51.1403 86.8297 29.7217 72.4815 16.021C67.1785 10.9571 61.7275 7.94762 54.4716 6.07681C50.0592 4.93924 42.4971 4.64345 38.2308 5.44111ZM28.1136 52.0184C26.0809 53.1435 25.6882 55.9558 27.3343 57.5998C28.2893 58.5538 28.5858 58.6403 30.8979 58.6403H33.4199V56.5214C33.4199 53.9757 32.9028 52.7086 31.5864 52.0287C30.3758 51.4037 29.2301 51.4001 28.1136 52.0184ZM57.8909 52.2494C56.8489 53.0684 56.2321 54.8787 56.2292 57.1275L56.2271 58.6403H58.7159C60.9585 58.6403 61.3195 58.5381 62.3604 57.6087C63.3169 56.7552 63.5165 56.3195 63.5165 55.0809C63.5165 52.1949 60.13 50.4907 57.8909 52.2494ZM38.4934 75.6281L38.5871 87.6492H45.0017H51.4162V75.7253V63.8013L44.9079 63.7042L38.3993 63.6074L38.4934 75.6281ZM25.9362 93.5221C25.5403 93.9176 25.2235 94.7085 25.2235 95.3018C25.2235 95.8952 25.5403 96.6861 25.9362 97.0815C26.6304 97.7749 27.124 97.7934 44.9464 97.7934C61.921 97.7934 63.2845 97.7482 63.8058 97.1705C64.8001 96.0685 64.8935 94.8302 64.0614 93.7738L63.3027 92.8103H44.9756C27.124 92.8103 26.6304 92.8288 25.9362 93.5221ZM27.0378 103.159C25.1847 103.911 24.7292 105.612 25.9623 107.178L26.7006 108.116H44.77C65.087 108.116 64.4234 108.199 64.4234 105.659C64.4234 104.741 64.1843 104.095 63.6736 103.633C62.9598 102.987 62.0771 102.951 45.41 102.883C34.6493 102.839 27.5652 102.946 27.0378 103.159ZM26.8272 113.51C25.0895 114.459 24.761 115.975 25.9623 117.5L26.7006 118.438H44.8495C62.5229 118.438 63.0165 118.419 63.7107 117.726C64.7719 116.666 64.6611 114.761 63.4844 113.837C62.5632 113.113 62.2186 113.099 45.0426 113.109C33.0639 113.117 27.315 113.243 26.8272 113.51ZM33.5549 124.4C34.2566 125.747 35.5 126.844 37.0662 127.497C38.0946 127.926 39.8287 128.048 44.9204 128.048C51.1671 128.048 51.532 128.009 53.2172 127.164C54.7225 126.409 56.5834 124.476 56.5834 123.666C56.5834 123.531 51.2872 123.421 44.8142 123.421H33.0453L33.5549 124.4Z" stroke="white" stroke-width="62" mask="url(#path-1-inside-1_49_87)"/>
</g>
<defs>
<filter id="filter0_i_49_87" x="-2" y="0" width="92" height="137" filterUnits="userSpaceOnUse" color-interpolation-filters="sRGB">
<feFlood flood-opacity="0" result="BackgroundImageFix"/>
<feBlend mode="normal" in="SourceGraphic" in2="BackgroundImageFix" result="shape"/>
<feColorMatrix in="SourceAlpha" type="matrix" values="0 0 0 0 0 0 0 0 0 0 0 0 0 0 0 0 0 0 127 0" result="hardAlpha"/>
<feOffset dx="-2" dy="4"/>
<feGaussianBlur stdDeviation="2"/>
<feComposite in2="hardAlpha" operator="arithmetic" k2="-1" k3="1"/>
<feColorMatrix type="matrix" values="0 0 0 0 0 0 0 0 0 0 0 0 0 0 0 0 0 0 0.25 0"/>
<feBlend mode="normal" in2="shape" result="effect1_innerShadow_49_87"/>
</filter>
</defs>
</svg>
